<?xml version="1.0" encoding="utf-8"?>
<!-- Generator: Adobe Illustrator 22.0.1, SVG Export Plug-In . SVG Version: 6.00 Build 0)  -->
<svg version="1.1" id="Capa_1" xmlns="http://www.w3.org/2000/svg" xmlns:xlink="http://www.w3.org/1999/xlink" x="0px" y="0px"
	 viewBox="0 0 512 512" style="enable-background:new 0 0 512 512;" xml:space="preserve">
<style type="text/css">
	.st0{fill:#5D394D;}
</style>
<g>
	<path class="st0" d="M503.2,135c-6.3-27.2-28.5-47.3-55.4-50.3c-63.5-7.1-127.8-7.1-191.7-7.1c-64,0-128.2,0-191.7,7.1
		C37.5,87.7,15.3,107.7,9,135c-8.9,38.8-9,81.1-9,121s0,82.2,8.9,121c6.3,27.2,28.5,47.3,55.3,50.3c63.5,7.1,127.8,7.1,191.7,7.1
		c64,0,128.2,0,191.7-7.1c26.8-3,49.1-23.1,55.3-50.3c8.9-38.8,9-81.1,9-121C512,216.1,512.1,173.7,503.2,135z M189.9,335.5
		c0-56.6,0-112.7,0-169.3c54.3,28.3,108.2,56.4,162.8,84.9C298.3,279.3,244.3,307.3,189.9,335.5z"/>
</g>
</svg>
