<?xml version="1.0" encoding="utf-8"?>
<!-- Generator: Adobe Illustrator 22.0.1, SVG Export Plug-In . SVG Version: 6.00 Build 0)  -->
<svg version="1.1" id="Capa_1" xmlns="http://www.w3.org/2000/svg" xmlns:xlink="http://www.w3.org/1999/xlink" x="0px" y="0px"
	 viewBox="0 0 567 618" style="enable-background:new 0 0 567 618;" xml:space="preserve">
<style type="text/css">
	.st0{fill:#FFFFFF;}
</style>
<g>
	<g>
		<path class="st0" d="M103.9,577.9c18.1,18.1,38.9,26.4,63.6,25.4c0.1,0,0.4,0,0.6,0c9.3-0.9,18.6-0.7,28.5-0.5
			c6.7,0.1,13.6,0.2,20.4,0.1c31.7-0.7,52.1-21.2,52.2-52.5v-87.2c0.3-15.1-4.5-28.2-13.8-37.5c-9.3-9.3-22.3-14.2-37.6-14.2h-51.9
			c-1-3.7-2.2-7.4-3.4-10.9c-1.4-4.3-2.8-8.4-3.7-12.4c-8.7-38.7-10.5-79.8-5.8-125.5c2.7-23.5,6.8-41.4,13.2-57.5
			c12.9,0.6,25.7,0.6,38.1,0.4c4.5-0.1,8.9-0.1,13.5-0.1c15.7,0,29-4.9,38.3-14.2c9.3-9.3,14.1-22.5,14.2-38.3v-43.2
			c0-5,0-10,0.1-14.9c0.1-9.7,0.2-19.8-0.1-29.3c0-14.9-4.9-27.6-14.2-36.8s-22.1-14.3-37.2-14.6l-54.3-0.1
			c-19.7,0-37.4,6.5-52.5,19.1c-18.7,16-34,37.6-48.1,68.2c-21.8,47.2-34.6,98.4-40.3,161c-6.8,75.9,2.3,150.1,26.8,220.5
			c9.5,26.7,23.6,61,48.7,89.6C100.6,574.5,102.2,576.3,103.9,577.9z M48.9,264.8c5.5-59.6,17.6-108.2,38.2-152.7
			c12.6-27.4,25.4-45.8,41.3-59.4c10.4-8.8,22.3-13.2,36-13.1l54,0c8.2,0.1,15,2.6,19.5,7.1c4.4,4.4,6.8,10.9,6.8,19.3
			c0.3,9.4,0.2,18.7,0.1,28.6c-0.1,5.1-0.1,10.1-0.1,15.2v43.2c0,9-2.3,15.8-6.7,20.2c-4.4,4.4-11.2,6.7-20.2,6.7
			c-4.6,0-9.1,0-13.6,0.1c-13.5,0.1-26.3,0.1-39.5-0.5c-0.3,0-0.4,0-0.7,0c-12.1,0-17,6.7-19.9,12.6c-0.1,0.3-0.2,0.5-0.4,0.8
			c-7.9,19-12.9,39.6-16,66.9c-5,48.7-3,92.4,6.2,133.7c1.2,5.1,2.7,10.1,4.4,14.9c1.4,4.3,2.8,8.4,3.7,12.4
			c0.1,0.4,0.2,0.8,0.4,1.2c1.2,3.6,2.9,6.5,5.3,8.8c5.9,5.9,13.4,5.9,15.9,5.9h54.3c8.4,0,15.1,2.4,19.6,6.8
			c5.5,5.5,6.5,13.3,6.4,19.2v87.5c0,17.4-9.4,26.6-27.4,27c-6.3,0.1-12.6,0.1-19.3,0c-10-0.1-20.4-0.4-30.9,0.6
			c-17.3,0.7-31.4-5.1-44.3-17.9c-1.2-1.2-2.5-2.6-3.7-4c-22.3-25.4-35.1-56.8-43.7-81.2C51.1,407.8,42.5,337.1,48.9,264.8z"/>
		<path class="st0" d="M373.7,207.8c-5-5-13.1-5-18.1,0l-91.9,91.9c-5,5-5,13.1,0,18.1l91.9,91.9c5,5,13.1,5,18.1,0s5-13.1,0-18.1
			l-70.1-70.1h237.2c7.1,0,12.7-5.7,12.7-12.7c0-7.1-5.7-12.7-12.7-12.7H303.6l70.1-70.1C378.7,220.9,378.7,212.8,373.7,207.8z"/>
	</g>
</g>
</svg>
