<?xml version="1.0" encoding="utf-8"?>
<!-- Generator: Adobe Illustrator 22.0.1, SVG Export Plug-In . SVG Version: 6.00 Build 0)  -->
<svg version="1.1" id="Capa_1" xmlns="http://www.w3.org/2000/svg" xmlns:xlink="http://www.w3.org/1999/xlink" x="0px" y="0px"
	 viewBox="0 0 512 512" style="enable-background:new 0 0 512 512;" xml:space="preserve">
<style type="text/css">
	.st0{fill:#5D394D;}
</style>
<g>
	<g>
		<path class="st0" d="M256,0c-70.6,0-128,57.4-128,128s57.4,128,128,128s128-57.4,128-128S326.6,0,256,0z M256,192
			c-35.3,0-64-28.7-64-64s28.7-64,64-64s64,28.7,64,64S291.3,192,256,192z"/>
	</g>
</g>
<g>
	<g>
		<path class="st0" d="M425.7,252.4c-12.5-12.5-32.7-12.5-45.2,0c-68.6,68.6-180.3,68.6-248.9,0c-12.5-12.5-32.7-12.5-45.2,0
			c-12.5,12.5-12.5,32.7,0,45.3c39.8,39.8,90.3,62.5,142.3,68.4l-91.2,91.2c-12.5,12.5-12.5,32.7,0,45.2s32.7,12.5,45.2,0l73.4-73.4
			l73.4,73.4c6.2,6.2,14.4,9.4,22.6,9.4s16.4-3.1,22.6-9.4c12.5-12.5,12.5-32.7,0-45.2l-91.2-91.2c52-5.9,102.5-28.6,142.3-68.4
			C438.2,285.2,438.2,265,425.7,252.4z"/>
	</g>
</g>
</svg>
